<svg xmlns="http://www.w3.org/2000/svg" viewBox="0 0 594.95 87.8"><defs><style>.cls-1{fill:#002c45;}.cls-2{fill:#008fe1;}</style></defs><g id="Layer_2" data-name="Layer 2"><g id="Layer_1-2" data-name="Layer 1"><path class="cls-1" d="M0,43.91C0,18.31,19.65,0,46.09,0,60.76,0,73,5.33,81,15L68.41,26.68c-5.71-6.55-12.86-9.94-21.35-9.94-15.89,0-27.17,11.15-27.17,27.17S31.17,71.07,47.06,71.07c8.49,0,15.64-3.39,21.35-10.07L81,72.64C73,82.47,60.76,87.8,46,87.8,19.65,87.8,0,69.49,0,43.91Z"/><path class="cls-1" d="M94.28,1.45h19.65V70.34H156.5v16H94.28Z"/><path class="cls-1" d="M167.58,1.45h19.65v84.9H167.58Z"/><path class="cls-1" d="M202,43.91C202,18.31,221.69,0,248.13,0c14.67,0,26.92,5.33,34.93,15L270.45,26.68c-5.71-6.55-12.86-9.94-21.35-9.94-15.89,0-27.17,11.15-27.17,27.17s11.28,27.16,27.17,27.16c8.49,0,15.64-3.39,21.35-10.07l12.61,11.64c-8,9.83-20.26,15.16-35.05,15.16C221.69,87.8,202,69.49,202,43.91Z"/><path class="cls-1" d="M327.25,53l-11.4,11.88V86.35H296.32V1.45h19.53V41.11l37.6-39.66h21.82L340.11,39.29l37.23,47.06H354.42Z"/><path class="cls-2" d="M428.23,22v14.8h36v22h-36V86.35H399.12V0h70.19V22Z"/><path class="cls-2" d="M478.6,0h29.11V86.35H478.6Z"/><path class="cls-2" d="M540.55,22.57H515.26V0H595V22.57H569.66V86.35H540.55Z"/></g></g></svg>