<svg xmlns="http://www.w3.org/2000/svg" viewBox="0 0 594.95 216.95"><defs><style>.cls-1{fill:#002c45;}.cls-2{fill:#008fe1;}</style></defs><g id="Layer_2" data-name="Layer 2"><g id="Layer_1-2" data-name="Layer 1"><path class="cls-1" d="M0,173.05c0-25.59,19.65-43.9,46.09-43.9,14.67,0,26.92,5.33,34.93,15L68.41,155.83a27.3,27.3,0,0,0-21.35-9.94c-15.89,0-27.17,11.15-27.17,27.16s11.28,27.17,27.17,27.17c8.49,0,15.64-3.4,21.35-10.07L81,201.79C73,211.62,60.76,217,46,217,19.65,217,0,198.64,0,173.05Z"/><path class="cls-1" d="M94.28,130.6h19.65v68.89H156.5v16H94.28Z"/><path class="cls-1" d="M167.58,130.6h19.65v84.9H167.58Z"/><path class="cls-1" d="M202,173.05c0-25.59,19.65-43.9,46.09-43.9,14.67,0,26.92,5.33,34.93,15l-12.61,11.64a27.3,27.3,0,0,0-21.35-9.94c-15.89,0-27.17,11.15-27.17,27.16s11.28,27.17,27.17,27.17c8.49,0,15.64-3.4,21.35-10.07l12.61,11.64C275.05,211.62,262.8,217,248,217,221.69,217,202,198.64,202,173.05Z"/><path class="cls-1" d="M327.25,182.15,315.85,194V215.5H296.32V130.6h19.53v39.66l37.6-39.66h21.82l-35.16,37.84,37.23,47.06H354.42Z"/><path class="cls-2" d="M428.23,151.1v14.81h36v22h-36V215.5H399.12V129.15h70.19V151.1Z"/><path class="cls-2" d="M478.6,129.15h29.11V215.5H478.6Z"/><path class="cls-2" d="M540.55,151.72H515.26V129.15H595v22.57H569.66V215.5H540.55Z"/><rect class="cls-1" x="445.24" width="24.07" height="75.41"/><rect class="cls-2" x="406.14" y="12.83" width="24.07" height="49.74"/><rect class="cls-1" x="370.39" y="25.52" width="24.07" height="24.07"/><rect class="cls-1" x="125.64" width="24.07" height="75.41" transform="translate(275.36 75.41) rotate(180)"/><rect class="cls-2" x="161.75" y="12.83" width="24.07" height="49.74" transform="translate(347.57 75.41) rotate(180)"/><rect class="cls-1" x="197.5" y="25.82" width="24.07" height="24.07" transform="translate(419.08 75.71) rotate(180)"/><rect class="cls-1" x="285.89" y="-40.88" width="12.04" height="157.17" transform="translate(329.61 -254.2) rotate(90)"/></g></g></svg>